<svg id="webaLogo" xmlns="http://www.w3.org/2000/svg" viewBox="0 0 900 240"><defs><style>.baseFill{fill:#fc6;animation:test ease-in-out 1s}@keyframes test{0%,to{fill:#fc6}}</style></defs><path class="baseFill W" d="M0 0l90 240 30-60 30 60L240 0H0z"/><path class="baseFill E E1" d="M260 0h120v240H260z"/><path class="baseFill E E2" d="M260 0h180v60H260z"/><path class="baseFill E E3" d="M260 90h160v60H260z"/><path class="baseFill E E4" d="M260 180h180v60H260z"/><path class="baseFill B" d="M660 171.82c0 18-4.93 32.5-15 43.64Q623.17 240 578.51 240H480V0h91.34c44.33 0 66.49 20.91 66.49 62.5 0 12.73-2.46 23.18-7.16 31.59-4 7-10.3 13.18-18.81 18.18 19 4.09 32 11.82 38.73 23.18 6.27 10.45 9.4 22.5 9.4 36.36z"/><path class="baseFill A" d="M900 240H660L780 0l120 240z"/></svg>