<svg xmlns="http://www.w3.org/2000/svg" viewBox="0 0 192 48"><defs><style>.cls-1{fill:#fff}</style></defs><path class="cls-1" d="M78.46 25.23l.64-5h-4.93v-3.16c0-1.44.4-2.42 2.47-2.42h2.64V10.2a35.27 35.27 0 0 0-3.84-.2c-3.8 0-6.4 2.32-6.4 6.58v3.67h-4.3v5H69V38h5.14V25.23zm44.25-.45a5.16 5.16 0 0 0-3.63-1.63 5.87 5.87 0 0 0 3-1.66 4.35 4.35 0 0 0 .94-2.95 5.28 5.28 0 0 0-.63-2.6 4.68 4.68 0 0 0-1.84-1.79 7.91 7.91 0 0 0-2.52-.83 37 37 0 0 0-5.16-.23h-6v21.82h6.16a40.09 40.09 0 0 0 5.36-.25 8.73 8.73 0 0 0 2.75-.85 5 5 0 0 0 2.1-2.05 6.25 6.25 0 0 0 .74-3.08 5.59 5.59 0 0 0-1.27-3.9zm-10.27-6.85h1.28a6 6 0 0 1 3 .5 1.91 1.91 0 0 1 .76 1.73 1.77 1.77 0 0 1-.82 1.67 6.42 6.42 0 0 1-3 .48h-1.18v-4.39zm5.07 12.51a6.12 6.12 0 0 1-3 .53h-2.08v-4.76h2.17a5.65 5.65 0 0 1 3 .55 2.17 2.17 0 0 1 .81 1.92 1.79 1.79 0 0 1-.88 1.77zm12.82-1.05a2.76 2.76 0 1 0 2.76 2.76 2.76 2.76 0 0 0-2.76-2.76zm-2.4-16.3h4.8v14.55h-4.8zM18.75 35.5c10.68 0 16.52-8.85 16.52-16.52v-.75a11.82 11.82 0 0 0 2.9-3 11.59 11.59 0 0 1-3.34.91 5.83 5.83 0 0 0 2.55-3.21 11.64 11.64 0 0 1-3.69 1.41 5.81 5.81 0 0 0-9.9 5.3 16.49 16.49 0 0 1-12-6.07 5.81 5.81 0 0 0 1.8 7.75 5.76 5.76 0 0 1-2.59-.73v.07a5.81 5.81 0 0 0 4.66 5.69 5.8 5.8 0 0 1-2.62.1 5.81 5.81 0 0 0 5.43 4A11.65 11.65 0 0 1 11.23 33a11.82 11.82 0 0 1-1.38-.08 16.44 16.44 0 0 0 8.9 2.6M158.38 13.5a2 2 0 0 0-2 2.1v7.73c0 6.28 6.24 11.21 11.64 11.17 6.07 0 11.68-5.17 11.68-11.17V15.6a2 2 0 0 0-2.1-2.1h-19.22zm4.92 6.29l4.7 4.45 4.69-4.45c2.1-.88 3 1.51 2.15 2.22l-6.11 5.83a2 2 0 0 1-1.47 0L161.14 22c-.82-.77.25-3.21 2.15-2.22z"/></svg>