<?xml version="1.0" encoding="utf-8"?>
<!-- Generator: Adobe Illustrator 22.1.0, SVG Export Plug-In . SVG Version: 6.00 Build 0)  -->
<svg version="1.1" id="レイヤー_1" xmlns="http://www.w3.org/2000/svg" xmlns:xlink="http://www.w3.org/1999/xlink" x="0px"
	 y="0px" viewBox="0 0 300 60" style="enable-background:new 0 0 300 60;" xml:space="preserve">
<style type="text/css">
	.st0{fill:#FFFFFF;}
</style>
<path class="st0" d="M112.2,5H67.8C66.2,5,65,6.2,65,7.8c0,0,0,0,0,0v44.5c0,1.5,1.2,2.8,2.8,2.8l0,0h23.9V35.6h-6.5v-7.5h6.5v-5.6
	c0-6.5,3.9-10,9.7-10c1.9,0,3.9,0.1,5.8,0.3v6.8h-4c-3.1,0-3.7,1.5-3.7,3.7v4.8h7.5l-1,7.5h-6.5V55h12.7c1.5,0,2.8-1.2,2.8-2.8l0,0
	V7.8C115,6.2,113.8,5,112.2,5L112.2,5z"/>
<path class="st0" d="M18.9,54.4c22.6,0,35-18.8,35-35c0-0.5,0-1.1,0-1.6c2.4-1.8,4.5-3.9,6.1-6.4c-2.2,1-4.6,1.7-7.1,1.9
	c2.6-1.5,4.5-4,5.4-6.8c-2.4,1.4-5.1,2.5-7.8,3c-4.6-5-12.4-5.2-17.4-0.6c-3.2,3-4.6,7.5-3.6,11.8c-9.9-0.5-19.1-5.2-25.3-12.9
	C0.9,13.5,2.6,20.7,8,24.3c-2-0.1-3.9-0.6-5.6-1.5v0.2c0,5.9,4.1,10.9,9.9,12.1c-1.8,0.5-3.7,0.6-5.6,0.2c1.6,5,6.2,8.5,11.5,8.5
	C13.9,47.2,8.5,49,2.9,49c-1,0-2,0-2.9-0.2C5.6,52.5,12.2,54.4,18.9,54.4"/>
<path class="st0" d="M159,57.3c14.6-5,22.5-20.9,17.5-35.5S155.6-0.7,141,4.2s-22.5,20.9-17.5,35.5c2.6,7.7,8.4,13.9,15.9,16.9h0.3
	c1.9-0.8,4.5-2.2,4.5-4.7v-4.1c-6.4,1.5-7.6-2.6-7.6-2.6c-0.4-1.4-1.2-2.6-2.4-3.4c-2.1-1.3,0.2-1.3,0.2-1.3
	c1.5,0.1,2.8,0.9,3.6,2.2c2.1,3.4,5.2,2.4,6.5,1.9c0.1-1.1,0.7-2.2,1.5-3c-5-0.6-10.3-2.6-10.3-11.2c-0.1-2.2,0.7-4.4,2.2-6
	c-0.7-1.9-0.7-4.1,0.2-6c0,0,1.9-0.8,6.2,2.2c1.8-0.5,3.7-0.8,5.6-0.8c1.9,0,3.8,0.2,5.6,0.8c4.3-2.8,6.2-2.2,6.2-2.2
	c0.8,2,0.9,4.1,0.4,6.2c1.5,1.7,2.3,3.8,2.2,6c0,8.8-5.2,10.6-10.3,11.2c1.1,1.1,1.6,2.6,1.5,4.1v6.2C155.6,54.4,157,56.3,159,57.3
	L159,57.3z"/>
<path class="st0" d="M290,11.8c-4.7-3.9-10.6-5.9-16.6-5.6c-17.5,0-29.4,13.6-29.4,13.6l3.3,5.3c0,0,1.8,0.3,0.9-3
	c1.5-2.4,3.4-4.5,5.6-6.2v35.6c-1.5,0.3-3.3,1.2-2.1,2.4h9.5c1.2-1.2-0.6-2.1-2.1-2.4v-8.6c4.4,1.5,9,2.4,13.6,2.7
	c5.9,0.1,11.6-1.8,16.3-5.3c4.3-3.3,6.9-8.5,6.8-13.9C296.4,20.8,294.2,15.3,290,11.8z M284.7,37.3c-3.3,3-7.7,4.7-12.2,4.7
	c-4.5,0-8.9-0.9-13-2.7V12.7c3.9-2.4,8.4-3.8,13-3.9c4.6-0.1,9,1.7,12.2,5c2.9,3.3,4.5,7.5,4.5,11.9C289.5,30,287.9,34.3,284.7,37.3
	L284.7,37.3z"/>
<path class="st0" d="M210,8.9c6.8,0,7.7,0,10.4,0.3c1.6,0,3.2,0.3,4.7,0.9c1.1,0.4,2.1,1,3,1.8c0.9,0.8,1.5,1.8,1.8,3
	c0.6,1.5,0.9,3.1,0.9,4.7c0,2.7,0.3,3.6,0.3,10.4s0,7.7-0.3,10.4c0,1.6-0.3,3.2-0.9,4.7c-0.9,2.1-2.6,3.8-4.7,4.7
	c-1.5,0.6-3.1,0.9-4.7,0.9c-2.7,0-3.6,0.3-10.4,0.3s-7.7,0-10.4-0.3c-1.6,0-3.2-0.3-4.7-0.9c-1.1-0.4-2.1-1-3-1.8
	c-0.9-0.8-1.5-1.8-1.8-3c-0.6-1.5-0.9-3.1-0.9-4.7c0-2.7-0.3-3.6-0.3-10.4s0-7.7,0.3-10.4c0-1.6,0.3-3.2,0.9-4.7
	c0.4-1.1,1-2.1,1.8-3c0.8-0.9,1.8-1.5,3-1.8c1.5-0.6,3.1-0.9,4.7-0.9C202.3,9.2,203.2,8.9,210,8.9 M210,4.5c-6.8,0-7.7,0-10.4,0.3
	c-2.1,0.2-4.2,0.6-6.3,1.2c-1.7,0.6-3.2,1.7-4.4,3c-1.3,1.2-2.4,2.8-3,4.4c-0.8,2-1.2,4.1-1.2,6.2c0,2.7-0.3,3.6-0.3,10.4
	s0,7.7,0.3,10.4c0,2.1,0.5,4.2,1.2,6.2c0.6,1.7,1.7,3.2,3,4.5c1.2,1.3,2.8,2.4,4.4,3c2,0.8,4.1,1.2,6.2,1.2c2.7,0,3.6,0.3,10.4,0.3
	s7.7,0,10.4-0.3c2.1-0.2,4.2-0.6,6.2-1.2c3.4-1.2,6.2-4,7.4-7.4c0.8-2,1.2-4.1,1.2-6.2c0-2.7,0.3-3.6,0.3-10.4s0-7.7-0.3-10.4
	c0-2.1-0.4-4.2-1.2-6.2c-0.6-1.7-1.7-3.2-3-4.4c-1.2-1.3-2.8-2.4-4.4-3c-2-0.8-4.1-1.2-6.2-1.2C217.7,4.5,216.8,4.5,210,4.5L210,4.5
	z M210,17c-7.2,0-13,5.8-13,13s5.8,13,13,13s13-5.8,13-13C222.9,22.9,217.1,17.1,210,17z M210,38.7c-4.7,0-8.6-3.9-8.6-8.6
	s3.9-8.6,8.6-8.6s8.6,3.9,8.6,8.6C218.6,34.8,214.7,38.6,210,38.7z M220.7,16.4c0,1.7,1.3,3,3,3s3-1.3,3-3s-1.3-3-3-3
	C222,13.4,220.7,14.7,220.7,16.4L220.7,16.4z"/>
</svg>
