<svg id="レイヤー_1" data-name="レイヤー 1" xmlns="http://www.w3.org/2000/svg" viewBox="0 0 900 240"><defs><style>.cls-1{fill:#fc6;}</style></defs><title>アートボード 1</title><polygon class="cls-1" points="0 0 90 240 120 180 150 240 240 0 0 0"/><polygon class="cls-1" points="900 240 660 240 780 0 900 240"/><path class="cls-1" d="M660,171.82c0,18-4.93,32.5-15,43.64Q623.17,240,578.51,240H480V0h91.34c44.33,0,66.49,20.91,66.49,62.5,0,12.73-2.46,23.18-7.16,31.59-4,7-10.3,13.18-18.81,18.18,19,4.09,32,11.82,38.73,23.18,6.27,10.45,9.4,22.5,9.4,36.36Z"/><rect class="cls-1" x="260" width="180" height="60"/><rect class="cls-1" x="260" width="120" height="240"/><rect class="cls-1" x="260" y="180" width="180" height="60"/><rect class="cls-1" x="260" y="90" width="160" height="60"/></svg>