<?xml version="1.0" encoding="utf-8"?>
<!-- Generator: Adobe Illustrator 21.1.0, SVG Export Plug-In . SVG Version: 6.00 Build 0)  -->
<svg version="1.1" id="レイヤー_1" xmlns="http://www.w3.org/2000/svg" xmlns:xlink="http://www.w3.org/1999/xlink" x="0px"
	 y="0px" viewBox="0 0 240 48" style="enable-background:new 0 0 240 48;" xml:space="preserve">
<style type="text/css">
	.st0{fill:#FFFFFF;}
</style>
<path class="st0" d="M78.5,25.2l0.6-5h-4.9v-3.2c0-1.4,0.4-2.4,2.5-2.4h2.6v-4.4C78,10.1,76.7,10,75.4,10c-3.8,0-6.4,2.3-6.4,6.6
	v3.7h-4.3v5H69V38h5.1V25.2H78.5z"/>
<path class="st0" d="M122.7,24.8c-0.9-1-2.3-1.6-3.6-1.6c1.1-0.2,2.2-0.8,3-1.7c0.7-0.8,1-1.9,0.9-3c0-0.9-0.2-1.8-0.6-2.6
	c-0.4-0.8-1.1-1.4-1.8-1.8c-0.8-0.4-1.6-0.7-2.5-0.8c-1.7-0.2-3.4-0.3-5.2-0.2h-6v21.8h6.2c1.8,0,3.6,0,5.4-0.2
	c1-0.1,1.9-0.4,2.8-0.8c0.9-0.5,1.6-1.2,2.1-2c0.5-0.9,0.8-2,0.7-3.1C124.1,27.3,123.6,25.9,122.7,24.8z M112.4,17.9h1.3
	c1-0.1,2.1,0.1,3,0.5c0.5,0.4,0.8,1.1,0.8,1.7c0.1,0.7-0.3,1.3-0.8,1.7c-0.9,0.4-2,0.6-3,0.5h-1.2L112.4,17.9L112.4,17.9z
	 M117.5,30.4c-0.9,0.4-2,0.6-3,0.5h-2.1v-4.8h2.2c1-0.1,2.1,0.1,3,0.5c0.6,0.5,0.9,1.2,0.8,1.9C118.5,29.4,118.2,30.1,117.5,30.4
	L117.5,30.4z"/>
<path class="st0" d="M130.3,29.4c-1.5,0-2.8,1.2-2.8,2.8c0,1.5,1.2,2.8,2.8,2.8s2.8-1.2,2.8-2.8c0,0,0,0,0,0l0,0
	C133.1,30.6,131.9,29.4,130.3,29.4z"/>
<rect x="127.9" y="13.1" class="st0" width="4.8" height="14.5"/>
<path class="st0" d="M18.8,35.5c10.7,0,16.5-8.9,16.5-16.5c0-0.2,0-0.5,0-0.8c1.1-0.8,2.1-1.8,2.9-3c-1.1,0.5-2.2,0.8-3.3,0.9
	c1.2-0.7,2.1-1.9,2.5-3.2c-1.1,0.7-2.4,1.2-3.7,1.4c-2.2-2.3-5.9-2.5-8.2-0.3c-1.5,1.4-2.2,3.6-1.7,5.6c-4.7-0.2-9-2.4-12-6.1
	c-1.5,2.7-0.8,6,1.8,7.8c-0.9,0-1.8-0.3-2.6-0.7v0.1c0,2.8,2,5.1,4.7,5.7c-0.9,0.2-1.8,0.3-2.6,0.1c0.8,2.4,3,4,5.4,4
	c-2.1,1.6-4.6,2.5-7.2,2.5c-0.5,0-0.9,0-1.4-0.1C12.5,34.6,15.6,35.5,18.8,35.5"/>
<path class="st0" d="M158.4,13.5c-1.1,0-2,0.9-2,2c0,0,0,0.1,0,0.1v7.7c0,6.3,6.2,11.2,11.6,11.2c6.1,0,11.7-5.2,11.7-11.2v-7.7
	c0.1-1.1-0.8-2-1.9-2.1c-0.1,0-0.1,0-0.2,0H158.4z M163.3,19.8l4.7,4.4l4.7-4.4c2.1-0.9,3,1.5,2.1,2.2l-6.1,5.8
	c-0.5,0.2-1,0.2-1.5,0l-6.1-5.8C160.3,21.2,161.4,18.8,163.3,19.8L163.3,19.8z"/>
<path class="st0" d="M233.4,21.9c0-7.8-7.8-14.2-17.5-14.2c-9.6,0-17.5,6.4-17.5,14.2c0,7,6.2,12.9,14.6,14c0.6,0.1,1.3,0.4,1.5,0.9
	c0.2,0.4,0.1,1.1,0.1,1.6c0,0-0.2,1.2-0.2,1.5c-0.1,0.4-0.4,1.7,1.5,0.9c1.9-0.8,10.1-5.9,13.7-10.1h0
	C232.2,27.8,233.4,25,233.4,21.9z M209.8,26.1c0,0.2-0.2,0.3-0.3,0.3h-4.9h0c-0.1,0-0.2,0-0.2-0.1c0,0,0,0,0,0c0,0,0,0,0,0
	c-0.1-0.1-0.1-0.1-0.1-0.2v0v-7.6c0-0.2,0.2-0.3,0.3-0.3h1.2c0.2,0,0.3,0.2,0.3,0.3v6h3.3c0.2,0,0.3,0.2,0.3,0.3V26.1z M212.7,26.1
	c0,0.2-0.2,0.3-0.3,0.3h-1.2c-0.2,0-0.3-0.2-0.3-0.3v-7.6c0-0.2,0.2-0.3,0.3-0.3h1.2c0.2,0,0.3,0.2,0.3,0.3V26.1z M221.1,26.1
	c0,0.2-0.2,0.3-0.3,0.3h-1.2c0,0-0.1,0-0.1,0c0,0,0,0,0,0c0,0,0,0,0,0c0,0,0,0,0,0c0,0,0,0,0,0c0,0,0,0,0,0c0,0,0,0,0,0c0,0,0,0,0,0
	c0,0,0,0,0,0c0,0-0.1,0-0.1-0.1l-3.5-4.7v4.5c0,0.2-0.2,0.3-0.3,0.3h-1.2c-0.2,0-0.3-0.2-0.3-0.3v-7.6c0-0.2,0.2-0.3,0.3-0.3h1.2
	c0,0,0,0,0,0c0,0,0,0,0,0c0,0,0,0,0,0c0,0,0,0,0,0c0,0,0,0,0,0c0,0,0,0,0,0c0,0,0,0,0,0c0,0,0,0,0,0c0,0,0,0,0,0c0,0,0,0,0,0
	c0,0,0,0,0,0c0,0,0,0,0,0c0,0,0,0,0,0c0,0,0,0,0,0c0,0,0,0,0,0c0,0,0,0,0,0c0,0,0,0,0,0c0,0,0,0,0,0c0,0,0,0,0,0l3.5,4.7v-4.5
	c0-0.2,0.2-0.3,0.3-0.3h1.2c0.2,0,0.3,0.2,0.3,0.3V26.1z M227.9,19.7c0,0.2-0.2,0.3-0.3,0.3h-3.3v1.3h3.3c0.2,0,0.3,0.2,0.3,0.3v1.2
	c0,0.2-0.2,0.3-0.3,0.3h-3.3v1.3h3.3c0.2,0,0.3,0.2,0.3,0.3v1.2c0,0.2-0.2,0.3-0.3,0.3h-4.9h0c-0.1,0-0.2,0-0.2-0.1c0,0,0,0,0,0
	c0,0,0,0,0,0c-0.1-0.1-0.1-0.1-0.1-0.2v0v-7.6v0c0-0.1,0-0.2,0.1-0.2c0,0,0,0,0,0c0,0,0,0,0,0c0.1-0.1,0.1-0.1,0.2-0.1h0h4.9
	c0.2,0,0.3,0.2,0.3,0.3V19.7z"/>
</svg>
