<svg xmlns="http://www.w3.org/2000/svg" viewBox="0 0 192 48"><defs><style>.cls-1{fill:#fff;}</style></defs><path class="cls-1" d="M78.46,25.23l.64-5H74.17V17.07c0-1.44.4-2.42,2.47-2.42h2.64V10.2a35.27,35.27,0,0,0-3.84-.2c-3.8,0-6.4,2.32-6.4,6.58v3.67h-4.3v5H69V38h5.14V25.23Z"/><path class="cls-1" d="M122.71,24.78a5.16,5.16,0,0,0-3.63-1.63,5.87,5.87,0,0,0,3-1.66,4.35,4.35,0,0,0,.94-2.95,5.28,5.28,0,0,0-.63-2.6,4.68,4.68,0,0,0-1.84-1.79,7.91,7.91,0,0,0-2.52-.83,37,37,0,0,0-5.16-.23h-6V34.91h6.16a40.09,40.09,0,0,0,5.36-.25,8.73,8.73,0,0,0,2.75-.85,5,5,0,0,0,2.1-2.05,6.25,6.25,0,0,0,.74-3.08A5.59,5.59,0,0,0,122.71,24.78Zm-10.27-6.85h1.28a6,6,0,0,1,3,.5,1.91,1.91,0,0,1,.76,1.73,1.77,1.77,0,0,1-.82,1.67,6.42,6.42,0,0,1-3,.48h-1.18V17.92Zm5.07,12.51a6.12,6.12,0,0,1-3,.53h-2.08V26.21h2.17a5.65,5.65,0,0,1,3,.55,2.17,2.17,0,0,1,.81,1.92,1.79,1.79,0,0,1-.88,1.77Z"/><path class="cls-1" d="M130.33,29.39a2.76,2.76,0,1,0,2.76,2.76h0A2.76,2.76,0,0,0,130.33,29.39Z"/><rect class="cls-1" x="127.93" y="13.09" width="4.8" height="14.55"/><path class="cls-1" d="M18.75,35.5c10.68,0,16.52-8.85,16.52-16.52,0-.25,0-.5,0-.75a11.82,11.82,0,0,0,2.9-3,11.59,11.59,0,0,1-3.34.91,5.83,5.83,0,0,0,2.55-3.21,11.64,11.64,0,0,1-3.69,1.41,5.81,5.81,0,0,0-9.9,5.3,16.49,16.49,0,0,1-12-6.07,5.81,5.81,0,0,0,1.8,7.75A5.76,5.76,0,0,1,11,20.59v.07a5.81,5.81,0,0,0,4.66,5.69,5.8,5.8,0,0,1-2.62.1,5.81,5.81,0,0,0,5.43,4A11.65,11.65,0,0,1,11.23,33a11.82,11.82,0,0,1-1.38-.08,16.44,16.44,0,0,0,8.9,2.6"/><path class="cls-1" d="M158.38,13.5a2,2,0,0,0-2,2.1v7.73c0,6.28,6.24,11.21,11.64,11.17,6.07,0,11.68-5.17,11.68-11.17V15.6a2,2,0,0,0-2.1-2.1H158.38Zm4.92,6.29L168,24.24l4.69-4.45c2.1-.88,3,1.51,2.15,2.22l-6.11,5.83a2,2,0,0,1-1.47,0L161.14,22c-.82-.77.25-3.21,2.15-2.22Z"/></svg>
