<svg xmlns="http://www.w3.org/2000/svg" viewBox="0 0 300 60">
    <defs><style>*{fill:#223;}</style></defs>
    <path d="M112.24,5H67.76A2.76,2.76,0,0,0,65,7.76V52.24A2.76,2.76,0,0,0,67.76,55H91.71V35.64H85.19V28.09h6.52V22.53c0-6.46,3.94-10,9.71-10a53.46,53.46,0,0,1,5.82.3V19.6h-4c-3.13,0-3.74,1.49-3.74,3.67v4.82H107l-1,7.55H99.5V55h12.74A2.76,2.76,0,0,0,115,52.24V7.76A2.76,2.76,0,0,0,112.24,5Z"/>
    <path d="M18.87,54.38c22.64,0,35-18.76,35-35,0-.53,0-1.06,0-1.59A25,25,0,0,0,60,11.39a24.57,24.57,0,0,1-7.07,1.94,12.35,12.35,0,0,0,5.41-6.81,24.67,24.67,0,0,1-7.82,3,12.32,12.32,0,0,0-21,11.23A35,35,0,0,1,4.18,7.87,12.32,12.32,0,0,0,8,24.3,12.22,12.22,0,0,1,2.4,22.76v.16A12.31,12.31,0,0,0,12.28,35a12.29,12.29,0,0,1-5.56.21,12.32,12.32,0,0,0,11.5,8.55A24.7,24.7,0,0,1,2.93,49,25.06,25.06,0,0,1,0,48.85a34.85,34.85,0,0,0,18.87,5.52"/>
    <path d="M159,57.26a28,28,0,1,0-19.58-.59h.33c1.87-.75,4.48-2.24,4.48-4.67V47.91c-6.35,1.49-7.65-2.61-7.65-2.61a5.91,5.91,0,0,0-2.43-3.36c-2.05-1.31.19-1.31.19-1.31a4.23,4.23,0,0,1,3.55,2.24c2.05,3.36,5.23,2.43,6.53,1.87a5,5,0,0,1,1.49-3c-5-.56-10.27-2.61-10.27-11.2a8.17,8.17,0,0,1,2.24-6,7.83,7.83,0,0,1,.19-6s1.87-.75,6.16,2.24a18.46,18.46,0,0,1,5.6-.75,19.27,19.27,0,0,1,5.6.75c4.29-2.8,6.16-2.24,6.16-2.24a10.21,10.21,0,0,1,.37,6.16,9,9,0,0,1,2.24,6c0,8.77-5.23,10.64-10.27,11.2A5.29,5.29,0,0,1,155.41,46V52.2a6.26,6.26,0,0,0,3.55,5Z"/>
    <path d="M290,11.77a24.58,24.58,0,0,0-16.61-5.64C255.87,6.14,244,19.78,244,19.78l3.26,5.34s1.78.3.89-3a22.87,22.87,0,0,1,5.64-6.23v35.6c-1.48.3-3.26,1.19-2.08,2.37h9.49c1.19-1.19-.59-2.08-2.08-2.37v-8.6a53,53,0,0,0,13.64,2.67,26.88,26.88,0,0,0,16.31-5.34,17.28,17.28,0,0,0,6.82-13.94A16.83,16.83,0,0,0,290,11.77Zm-5.34,25.51A18.38,18.38,0,0,1,272.48,42a33.15,33.15,0,0,1-13.05-2.67V12.66a25.72,25.72,0,0,1,13.05-3.86,16.32,16.32,0,0,1,12.16,5,17.36,17.36,0,0,1,4.45,11.87A14,14,0,0,1,284.64,37.28Z"/>
    <path d="M210,8.95c6.82,0,7.71,0,10.38.3a13.22,13.22,0,0,1,4.74.89,9.87,9.87,0,0,1,3,1.78,6.15,6.15,0,0,1,1.78,3,13.22,13.22,0,0,1,.89,4.74c0,2.67.3,3.56.3,10.38s0,7.71-.3,10.38a13.22,13.22,0,0,1-.89,4.74,9.26,9.26,0,0,1-4.74,4.74,13.22,13.22,0,0,1-4.74.89c-2.67,0-3.56.3-10.38.3s-7.71,0-10.38-.3a13.22,13.22,0,0,1-4.74-.89,9.87,9.87,0,0,1-3-1.78,6.15,6.15,0,0,1-1.78-3,13.22,13.22,0,0,1-.89-4.74c0-2.67-.3-3.56-.3-10.38s0-7.71.3-10.38a13.22,13.22,0,0,1,.89-4.74,9.87,9.87,0,0,1,1.78-3,6.15,6.15,0,0,1,3-1.78,13.22,13.22,0,0,1,4.74-.89c2.67,0,3.56-.3,10.38-.3m0-4.45c-6.82,0-7.71,0-10.38.3A29.07,29.07,0,0,0,193.4,6a11.73,11.73,0,0,0-4.45,3,11.73,11.73,0,0,0-3,4.45,16.54,16.54,0,0,0-1.19,6.23c0,2.67-.3,3.56-.3,10.38s0,7.71.3,10.38A17.88,17.88,0,0,0,186,46.6a11.73,11.73,0,0,0,3,4.45,11.73,11.73,0,0,0,4.45,3,16.54,16.54,0,0,0,6.23,1.19c2.67,0,3.56.3,10.38.3s7.71,0,10.38-.3A29.07,29.07,0,0,0,226.6,54,12.24,12.24,0,0,0,234,46.6a16.54,16.54,0,0,0,1.19-6.23c0-2.67.3-3.56.3-10.38s0-7.71-.3-10.38A17.88,17.88,0,0,0,234,13.4a11.73,11.73,0,0,0-3-4.45,11.73,11.73,0,0,0-4.45-3,16.54,16.54,0,0,0-6.23-1.19c-2.67-.3-3.56-.3-10.38-.3ZM210,17a13,13,0,1,0,13,13,13.16,13.16,0,0,0-13-13Zm0,21.65a8.6,8.6,0,1,1,8.6-8.6,8.61,8.61,0,0,1-8.6,8.6Zm10.67-22.24a3,3,0,1,0,3-3A3,3,0,0,0,220.67,16.36Z"/>
</svg>
