<svg enable-background="new 0 0 360 60" viewBox="0 0 360 60" xmlns="http://www.w3.org/2000/svg"><g fill="#fff"><path d="m112.2 5h-44.4c-1.6 0-2.8 1.2-2.8 2.8v44.5c0 1.5 1.2 2.8 2.8 2.8h23.9v-19.5h-6.5v-7.5h6.5v-5.6c0-6.5 3.9-10 9.7-10 1.9 0 3.9.1 5.8.3v6.8h-4c-3.1 0-3.7 1.5-3.7 3.7v4.8h7.5l-1 7.5h-6.5v19.4h12.7c1.5 0 2.8-1.2 2.8-2.8v-44.4c0-1.6-1.2-2.8-2.8-2.8z"/><path d="m18.9 54.4c22.6 0 35-18.8 35-35 0-.5 0-1.1 0-1.6 2.4-1.8 4.5-3.9 6.1-6.4-2.2 1-4.6 1.6-7.1 1.9 2.6-1.5 4.5-4 5.4-6.8-2.4 1.4-5.1 2.5-7.8 3-4.6-5-12.4-5.2-17.4-.6-3.2 3-4.6 7.5-3.6 11.8-9.9-.5-19.1-5.2-25.3-12.9-3.3 5.7-1.6 12.9 3.8 16.5-2-.1-3.9-.6-5.6-1.5v.2c0 5.9 4.1 10.9 9.9 12.1-1.8.5-3.7.6-5.6.2 1.6 5 6.2 8.4 11.5 8.5-4.3 3.4-9.7 5.2-15.3 5.2-1 0-2 0-2.9-.2 5.6 3.7 12.2 5.6 18.9 5.6"/><path d="m159 57.3c14.6-5 22.5-20.9 17.5-35.5s-20.9-22.5-35.5-17.6-22.5 20.9-17.5 35.5c2.6 7.7 8.4 13.9 15.9 16.9h.3c1.9-.7 4.5-2.2 4.5-4.7v-4.1c-6.3 1.5-7.6-2.6-7.6-2.6-.4-1.4-1.2-2.6-2.4-3.4-2-1.3.2-1.3.2-1.3 1.5.1 2.8.9 3.6 2.2 2 3.4 5.2 2.4 6.5 1.9.1-1.1.7-2.2 1.5-3-5-.6-10.3-2.6-10.3-11.2-.1-2.2.7-4.4 2.2-6-.7-1.9-.7-4.1.2-6 0 0 1.9-.7 6.2 2.2 1.8-.5 3.7-.8 5.6-.7 1.9 0 3.8.2 5.6.7 4.3-2.8 6.2-2.2 6.2-2.2.8 2 .9 4.1.4 6.2 1.5 1.7 2.2 3.8 2.2 6 0 8.8-5.2 10.6-10.3 11.2 1.1 1.1 1.6 2.6 1.5 4.1v6.2c.2 2.3 1.5 4.2 3.5 5.2z"/><path d="m290 11.8c-4.7-3.9-10.6-5.9-16.6-5.6-17.5 0-29.4 13.6-29.4 13.6l3.3 5.3s1.8.3.9-3c1.5-2.4 3.4-4.5 5.6-6.2v35.6c-1.5.3-3.3 1.2-2.1 2.4h9.5c1.2-1.2-.6-2.1-2.1-2.4v-8.6c4.4 1.5 9 2.4 13.6 2.7 5.9.1 11.6-1.8 16.3-5.3 4.3-3.3 6.9-8.5 6.8-13.9.6-5.6-1.6-11.1-5.8-14.6zm-5.3 25.5c-3.3 3-7.7 4.7-12.2 4.7s-8.9-.9-13.1-2.7v-26.6c3.9-2.4 8.4-3.8 13.1-3.9 4.6-.1 9 1.7 12.2 5 2.9 3.3 4.5 7.5 4.5 11.9.3 4.3-1.3 8.6-4.5 11.6z"/><path d="m210 9c6.8 0 7.7 0 10.4.3 1.6 0 3.2.3 4.7.9 1.1.4 2.1 1 3 1.8s1.5 1.8 1.8 3c.6 1.5.9 3.1.9 4.7 0 2.7.3 3.6.3 10.4s0 7.7-.3 10.4c0 1.6-.3 3.2-.9 4.7-.9 2.1-2.6 3.8-4.8 4.8-1.5.6-3.1.9-4.7.9-2.7 0-3.6.3-10.4.3s-7.7 0-10.4-.3c-1.6 0-3.2-.3-4.7-.9-1.1-.4-2.1-1-3-1.8s-1.5-1.8-1.8-3c-.6-1.5-.9-3.1-.9-4.7 0-2.7-.3-3.6-.3-10.4s0-7.7.3-10.4c0-1.6.3-3.2.9-4.7.4-1.1 1-2.1 1.8-3s1.8-1.5 3-1.8c1.5-.6 3.1-.9 4.7-.9 2.7 0 3.6-.3 10.4-.3m0-4.5c-6.8 0-7.7 0-10.4.3-2.1.2-4.2.6-6.2 1.2-1.7.6-3.2 1.7-4.4 3-1.3 1.2-2.4 2.8-3 4.4-.8 2-1.2 4.1-1.2 6.2 0 2.7-.3 3.6-.3 10.4s0 7.7.3 10.4c0 2.1.4 4.2 1.2 6.2.6 1.7 1.7 3.2 3 4.5 1.2 1.3 2.8 2.4 4.4 3 2 .8 4.1 1.2 6.2 1.2 2.7 0 3.6.3 10.4.3s7.7 0 10.4-.3c2.1-.2 4.2-.6 6.2-1.2 3.4-1.2 6.2-4 7.4-7.4.8-2 1.2-4.1 1.2-6.2 0-2.7.3-3.6.3-10.4s0-7.7-.3-10.4c0-2.1-.4-4.2-1.2-6.2-.6-1.7-1.7-3.2-3-4.4-1.2-1.3-2.8-2.4-4.4-3-2-.8-4.1-1.2-6.2-1.2-2.7-.4-3.6-.4-10.4-.4zm0 12.5c-7.2 0-13 5.8-13 13.1 0 7.2 5.8 13 13.1 13 7.2 0 13-5.8 13-13.1-.1-7.2-5.9-12.9-13.1-13zm0 21.7c-4.7 0-8.6-3.9-8.6-8.6s3.9-8.6 8.6-8.6 8.6 3.9 8.6 8.6-3.9 8.5-8.6 8.6zm10.7-22.3c0 1.7 1.3 3 3 3s3-1.3 3-3-1.3-3-3-3-3 1.3-3 3z"/><path clip-rule="evenodd" d="m330 2c-15.5 0-28 12.5-28 28s12.5 28 28 28 28-12.5 28-28-12.5-28-28-28zm18.5 12.9c3.5 4.2 5.4 9.4 5.4 14.9-5.5-1.1-11.1-1.3-16.6-.8-.2-.4-.3-.8-.5-1.2-.5-1.1-1-2.3-1.6-3.5 8.8-3.6 12.8-8.7 13.3-9.4zm-18.5-8.8c5.8 0 11.5 2.1 15.9 6-.4.6-4 5.4-12.5 8.6-2.7-4.9-5.7-9.5-8.9-14 1.7-.4 3.6-.6 5.5-.6zm-10.2 2.3c3.2 4.4 6.2 9.1 8.9 13.8-7.2 1.9-14.6 2.9-22.1 2.9 1.5-7.3 6.4-13.5 13.2-16.7zm-13.7 21.6v-.7c8.3 0 16.6-1.1 24.6-3.4.7 1.3 1.3 2.7 1.9 4.1l-.9.3c-12.3 4-18.9 14.9-19.4 15.8-4.1-4.5-6.2-10.2-6.2-16.1zm23.9 23.9c-5.3 0-10.5-1.7-14.7-5 .4-.9 5.3-10.2 18.8-14.9l.1-.1c2.3 5.8 4 11.9 5.1 18.1-2.9 1.3-6.1 1.9-9.3 1.9zm13.3-4.1c-1.1-5.8-2.6-11.5-4.6-17 5-.7 10.1-.4 14.9 1-1.1 6.6-4.8 12.4-10.3 16z" fill-rule="evenodd"/></g></svg>