<svg id="レイヤー_1" xmlns="http://www.w3.org/2000/svg" viewBox="0 0 240 48"><style>.st0{fill:#fff}</style><path class="st0" d="M78.5 25.2l.6-5h-4.9V17c0-1.4.4-2.4 2.5-2.4h2.6v-4.4c-1.3-.1-2.6-.2-3.9-.2-3.8 0-6.4 2.3-6.4 6.6v3.7h-4.3v5H69V38h5.1V25.2h4.4zm44.2-.4c-.9-1-2.3-1.6-3.6-1.6 1.1-.2 2.2-.8 3-1.7.7-.8 1-1.9.9-3 0-.9-.2-1.8-.6-2.6-.4-.8-1.1-1.4-1.8-1.8-.8-.4-1.6-.7-2.5-.8-1.7-.2-3.4-.3-5.2-.2h-6v21.8h6.2c1.8 0 3.6 0 5.4-.2 1-.1 1.9-.4 2.8-.8.9-.5 1.6-1.2 2.1-2 .5-.9.8-2 .7-3.1 0-1.5-.5-2.9-1.4-4zm-10.3-6.9h1.3c1-.1 2.1.1 3 .5.5.4.8 1.1.8 1.7.1.7-.3 1.3-.8 1.7-.9.4-2 .6-3 .5h-1.2l-.1-4.4zm5.1 12.5c-.9.4-2 .6-3 .5h-2.1v-4.8h2.2c1-.1 2.1.1 3 .5.6.5.9 1.2.8 1.9.1.9-.2 1.6-.9 1.9zm12.8-1c-1.5 0-2.8 1.2-2.8 2.8 0 1.5 1.2 2.8 2.8 2.8s2.8-1.2 2.8-2.8c0-1.6-1.2-2.8-2.8-2.8zm-2.4-16.3h4.8v14.5h-4.8zM18.8 35.5c10.7 0 16.5-8.9 16.5-16.5v-.8c1.1-.8 2.1-1.8 2.9-3-1.1.5-2.2.8-3.3.9 1.2-.7 2.1-1.9 2.5-3.2-1.1.7-2.4 1.2-3.7 1.4-2.2-2.3-5.9-2.5-8.2-.3-1.5 1.4-2.2 3.6-1.7 5.6-4.7-.2-9-2.4-12-6.1-1.5 2.7-.8 6 1.8 7.8-.9 0-1.8-.3-2.6-.7v.1c0 2.8 2 5.1 4.7 5.7-.9.2-1.8.3-2.6.1.8 2.4 3 4 5.4 4-2.1 1.6-4.6 2.5-7.2 2.5-.5 0-.9 0-1.4-.1 2.6 1.7 5.7 2.6 8.9 2.6m139.6-22c-1.1 0-2 .9-2 2v7.8c0 6.3 6.2 11.2 11.6 11.2 6.1 0 11.7-5.2 11.7-11.2v-7.7c.1-1.1-.8-2-1.9-2.1h-19.4zm4.9 6.3l4.7 4.4 4.7-4.4c2.1-.9 3 1.5 2.1 2.2l-6.1 5.8c-.5.2-1 .2-1.5 0l-6.1-5.8c-.8-.8.3-3.2 2.2-2.2zm70.1 2.1c0-7.8-7.8-14.2-17.5-14.2-9.6 0-17.5 6.4-17.5 14.2 0 7 6.2 12.9 14.6 14 .6.1 1.3.4 1.5.9.2.4.1 1.1.1 1.6 0 0-.2 1.2-.2 1.5-.1.4-.4 1.7 1.5.9 1.9-.8 10.1-5.9 13.7-10.1 2.6-2.9 3.8-5.7 3.8-8.8zm-23.6 4.2c0 .2-.2.3-.3.3h-4.9c-.1 0-.2 0-.2-.1-.1-.1-.1-.1-.1-.2v-7.6c0-.2.2-.3.3-.3h1.2c.2 0 .3.2.3.3v6h3.3c.2 0 .3.2.3.3v1.3zm2.9 0c0 .2-.2.3-.3.3h-1.2c-.2 0-.3-.2-.3-.3v-7.6c0-.2.2-.3.3-.3h1.2c.2 0 .3.2.3.3v7.6zm8.4 0c0 .2-.2.3-.3.3h-1.3s-.1 0-.1-.1l-3.5-4.7v4.5c0 .2-.2.3-.3.3h-1.2c-.2 0-.3-.2-.3-.3v-7.6c0-.2.2-.3.3-.3h1.2l3.5 4.7v-4.5c0-.2.2-.3.3-.3h1.2c.2 0 .3.2.3.3v7.7zm6.8-6.4c0 .2-.2.3-.3.3h-3.3v1.3h3.3c.2 0 .3.2.3.3v1.2c0 .2-.2.3-.3.3h-3.3v1.3h3.3c.2 0 .3.2.3.3v1.2c0 .2-.2.3-.3.3h-4.9c-.1 0-.2 0-.2-.1-.1-.1-.1-.1-.1-.2v-7.6c0-.1 0-.2.1-.2.1-.1.1-.1.2-.1h4.9c.2 0 .3.2.3.3v1.4z"/></svg>