<svg class="feedly" xmlns="http://www.w3.org/2000/svg" viewBox="0 0 68 60">
    <path class="cls-1" d="M34.74,45.07l3.86,3.85a1.09,1.09,0,0,1,0,1.54l-2.86,2.83a.61.61,0,0,1-.48.19H32.74a.61.61,0,0,1-.47-.19l-2.9-2.87a1.09,1.09,0,0,1,0-1.54l3.82-3.82a1.09,1.09,0,0,1,1.54,0Zm0-15.81,3.86,3.85a1.09,1.09,0,0,1,0,1.54L27.83,45.42a.61.61,0,0,1-.48.19H24.83a.6.6,0,0,1-.47-.19l-2.9-2.89a1.09,1.09,0,0,1,0-1.54L33.23,29.26a1.09,1.09,0,0,1,1.54,0Zm0-15.78,3.86,3.85a1.09,1.09,0,0,1,0,1.54L19.92,37.54a.61.61,0,0,1-.48.19H16.93a.61.61,0,0,1-.47-.19l-2.9-2.91a1.09,1.09,0,0,1,0-1.54L33.23,13.47A1.09,1.09,0,0,1,34.77,13.47ZM39.59,2.31a7.92,7.92,0,0,0-11.18,0l-26,26a7.88,7.88,0,0,0,0,11.16L21.15,58.24A7.16,7.16,0,0,0,25.31,60H42.56a7.93,7.93,0,0,0,4.35-1.83l18.7-18.71a7.88,7.88,0,0,0,0-11.16l-26-26Z"/>
</svg>
