<svg class="twitter" xmlns="http://www.w3.org/2000/svg" viewBox="0 0 74 60">
    <path class="cls-1" d="M23.3,60c27.86,0,43.11-23.09,43.11-43.11,0-.66,0-1.31,0-2a30.82,30.82,0,0,0,7.56-7.84,30.24,30.24,0,0,1-8.7,2.38A15.2,15.2,0,0,0,71.88,1.1a30.36,30.36,0,0,1-9.62,3.68A15.16,15.16,0,0,0,36.44,18.59,43,43,0,0,1,5.22,2.76,15.16,15.16,0,0,0,9.91,23,15,15,0,0,1,3,21.09v.19A15.16,15.16,0,0,0,15.19,36.13a15.13,15.13,0,0,1-6.84.26A15.17,15.17,0,0,0,22.5,46.92a30.4,30.4,0,0,1-18.81,6.5,30.84,30.84,0,0,1-3.61-.22A42.89,42.89,0,0,0,23.3,60"/>
</svg>
